<svg width="43" height="32" viewBox="0 0 43 32" fill="none" xmlns="http://www.w3.org/2000/svg">
<path d="M11.778 31.08C5.378 31.08 0.514 26.536 0.514 18.28C0.514 11.688 4.162 6.056 10.754 2.792C14.018 1.192 17.538 0.359997 21.122 0.359997L22.402 2.152C19.138 2.152 12.482 4.008 9.346 7.656C7.746 9.512 6.914 11.048 6.914 12.264C7.618 11.368 10.306 10.472 13.058 10.472C16.45 10.472 19.074 11.88 20.866 14.696C22.786 6.184 31.234 0.359997 41.09 0.359997L42.37 2.152C39.106 2.152 32.45 4.008 29.314 7.656C27.714 9.512 26.882 11.048 26.882 12.264C27.586 11.368 30.274 10.472 33.026 10.472C38.594 10.472 42.498 14.952 42.498 20.456C42.498 26.6 38.274 31.08 31.746 31.08C27.266 31.08 23.49 28.712 21.762 24.808C20.162 28.712 16.642 31.08 11.778 31.08Z" fill="#302B29"/>
</svg>
