<svg width="40" height="40" viewBox="0 0 40 40" fill="none" xmlns="http://www.w3.org/2000/svg">
<g id="A_Social" clip-path="url(#clip0_2622_2694)">
<path id="Vector" d="M4.41586 18.932L23.0304 11.1405C24.8679 10.3289 31.0994 7.73174 31.0994 7.73174C31.0994 7.73174 33.9755 6.59549 33.7358 9.35496C33.6559 10.4912 33.0168 14.4681 32.3777 18.7696L30.3804 31.5119C30.3804 31.5119 30.2206 33.3786 28.8625 33.7032C27.5043 34.0279 25.2674 32.567 24.8679 32.2423C24.5484 31.9989 18.8761 28.3466 16.7989 26.5611C16.2397 26.0741 15.6006 25.1002 16.8788 23.9639C19.7549 21.2856 23.1902 17.958 25.2674 15.8478C26.2261 14.8739 27.1848 12.6014 23.1902 15.3609L11.9256 23.0712C11.9256 23.0712 10.6473 23.8828 8.25062 23.1523C5.85389 22.4219 3.05771 21.4479 3.05771 21.4479C3.05771 21.4479 1.14033 20.2305 4.41586 18.932Z" fill="#302B29"/>
</g>
<defs>
<clipPath id="clip0_2622_2694">
<rect width="40" height="40" fill="white"/>
</clipPath>
</defs>
</svg>
