<svg width="40" height="40" viewBox="0 0 40 40" fill="none" xmlns="http://www.w3.org/2000/svg">
<path fill-rule="evenodd" clip-rule="evenodd" d="M20 5C28.2845 5 35 11.8849 35 20.3794C35 27.1729 30.707 32.9359 24.7505 34.9714C23.99 35.1229 23.72 34.6426 23.72 34.2331C23.72 33.7261 23.738 32.0702 23.738 30.0122C23.738 28.5782 23.258 27.6423 22.7195 27.1653C26.06 26.7843 29.57 25.4836 29.57 19.5766C29.57 17.8966 28.988 16.5257 28.025 15.4487C28.181 15.0602 28.6955 13.4959 27.878 11.3779C27.878 11.3779 26.621 10.9658 23.7575 12.9548C22.559 12.6143 21.275 12.443 20 12.437C18.725 12.443 17.4425 12.6143 16.2455 12.9548C13.379 10.9658 12.119 11.3779 12.119 11.3779C11.3045 13.4959 11.819 15.0602 11.9735 15.4487C11.015 16.5257 10.4285 17.8966 10.4285 19.5766C10.4285 25.4686 13.931 26.7892 17.2625 27.1777C16.8335 27.5617 16.445 28.2391 16.31 29.2336C15.455 29.6266 13.283 30.3068 11.945 27.9563C11.945 27.9563 11.1515 26.4786 9.6455 26.3706C9.6455 26.3706 8.183 26.3512 9.5435 27.3052C9.5435 27.3052 10.526 27.7777 11.2085 29.5551C11.2085 29.5551 12.089 32.3001 16.262 31.3701C16.2695 32.6556 16.283 33.8671 16.283 34.2331C16.283 34.6396 16.007 35.1154 15.2585 34.9729C9.2975 32.9404 5 27.1744 5 20.3794C5 11.8849 11.717 5 20 5Z" fill="#302B29"/>
</svg>
