<svg width="80" height="41" viewBox="0 0 80 41" fill="none" xmlns="http://www.w3.org/2000/svg">
<path d="M41.2323 40.6645C33.4258 40.6645 23.7742 38.5355 17.6 33.5677H12.5613C10.5032 31.0839 9.43871 26.6129 9.43871 20.1548C9.43871 15.2581 10.7871 10.2903 12.5613 7.80645C13.4839 7.87742 15.0452 7.94839 15.8968 7.94839C18.7355 7.94839 20.0129 7.59355 24.129 4.32903C28.1742 1.13549 30.729 0 34.8452 0C39.1032 0 43.1484 0.496775 46.2 1.77419C49.5355 3.19355 51.9484 3.90323 53.2968 4.1871C53.9355 4.32903 54.8581 4.75484 55.3548 5.18064C57.5548 5.39355 59.8968 5.46452 61.8129 5.74839C65.3613 6.24516 69.2645 6.6 72.1032 6.95484C76.1484 7.45162 79.3419 8.23226 79.3419 11.4258C79.3419 13.8387 77.7807 15.0452 73.6645 15.0452C72.0323 15.0452 68.7677 14.8323 65.7161 14.8323C62.3806 14.8323 59.1871 15.1871 56.4194 15.1871C58.4774 17.2452 59.0452 18.2387 59.0452 20.5097C59.0452 22.1419 58.4774 23.2065 56.7032 23.9871C55.7806 24.4129 54.929 25.1226 55 25.9742C55.1419 27.3226 55.7097 28.0323 55.7097 29.3097C55.7097 31.1548 54.8581 32.4323 53.0839 33C52.0194 33.3548 51.5226 33.9226 51.5226 35.6258C51.5226 39.529 46.8387 40.6645 41.2323 40.6645ZM5.89032 37.1871C1.27742 37.1871 0 27.1806 0 20.6516C0 14.1936 1.34839 4.04516 5.89032 4.04516H11.2129C12.0645 4.04516 12.6323 4.68387 12.6323 5.74839V5.89032C12.2774 5.46452 12.0645 5.39355 11.5677 5.39355C7.59355 5.39355 6.52903 14.2645 6.52903 20.6516C6.52903 27.1806 7.80645 35.9806 11.5677 35.9806C12.0645 35.9806 12.3484 35.7677 12.6323 35.271V35.7677C12.6323 36.5484 12.2774 37.1871 11.2129 37.1871H5.89032Z" fill="#CCBBA3"/>
</svg>
