<svg width="80" height="41" viewBox="0 0 80 41" fill="none" xmlns="http://www.w3.org/2000/svg">
<path d="M38.1115 40.6645C45.9179 40.6645 55.5696 38.5355 61.7437 33.5677H66.7825C68.8405 31.0839 69.905 26.6129 69.905 20.1548C69.905 15.2581 68.5567 10.2903 66.7825 7.80645C65.8599 7.87742 64.2986 7.94839 63.447 7.94839C60.6083 7.94839 59.3308 7.59355 55.2147 4.32903C51.1696 1.13549 48.6147 0 44.4986 0C40.2405 0 36.1954 0.496775 33.1437 1.77419C29.8083 3.19355 27.3954 3.90323 26.047 4.1871C25.4083 4.32903 24.4857 4.75484 23.9889 5.18064C21.7889 5.39355 19.447 5.46452 17.5308 5.74839C13.9825 6.24516 10.0792 6.6 7.24052 6.95484C3.19535 7.45162 0.00180817 8.23226 0.00180817 11.4258C0.00180817 13.8387 1.5631 15.0452 5.67922 15.0452C7.31148 15.0452 10.576 14.8323 13.6276 14.8323C16.9631 14.8323 20.1566 15.1871 22.9244 15.1871C20.8663 17.2452 20.2986 18.2387 20.2986 20.5097C20.2986 22.1419 20.8663 23.2065 22.6405 23.9871C23.5631 24.4129 24.4147 25.1226 24.3437 25.9742C24.2018 27.3226 23.6341 28.0323 23.6341 29.3097C23.6341 31.1548 24.4857 32.4323 26.2599 33C27.3244 33.3548 27.8212 33.9226 27.8212 35.6258C27.8212 39.529 32.505 40.6645 38.1115 40.6645ZM73.4534 37.1871C78.0663 37.1871 79.3438 27.1806 79.3438 20.6516C79.3438 14.1936 77.9954 4.04516 73.4534 4.04516H68.1308C67.2792 4.04516 66.7115 4.68387 66.7115 5.74839V5.89032C67.0663 5.46452 67.2792 5.39355 67.776 5.39355C71.7502 5.39355 72.8147 14.2645 72.8147 20.6516C72.8147 27.1806 71.5373 35.9806 67.776 35.9806C67.2792 35.9806 66.9954 35.7677 66.7115 35.271V35.7677C66.7115 36.5484 67.0663 37.1871 68.1308 37.1871H73.4534Z" fill="#CCBBA3"/>
</svg>
