<svg width="20" height="14" viewBox="0 0 20 14" fill="none" xmlns="http://www.w3.org/2000/svg">
<path d="M16.82 13.34C14.14 13.34 12.58 12.02 12.58 9.46C12.58 8.94 12.62 8.3 12.68 7.46C12.32 8.8 11.36 9.78 10.08 9.78C8.72 9.78 8.14 8.82 8.14 7.92C8.14 6.96 8.64 6.32 9.28 5.84L9.82 6.1C9.72 6.36 9.66 6.64 9.66 6.88C9.66 7.4 10.02 7.94 10.78 7.94C11.56 7.94 12.16 7.36 12.16 6.52C12.16 5.68 11.68 5 11 4.42C10 3.58 8.54 3.16 7.26 3.16C5.04 3.16 2.92 4.82 2.92 8.12C2.92 9.2 3.36 11.42 5.8 11.66V12.4C1.66 12.4 0.0200001 9.94 0.0200001 7.64C0.0200001 4.06 2.96 1.94 6.76 1.94C8.92 1.94 10.56 2.74 11.66 3.66C13.04 4.82 13.34 6.02 14.44 6.02C15.44 6.02 16.08 5.36 16.08 4.22C16.08 2.74 15.18 2.06 14.08 2.06C13.76 2.06 13.38 2.12 13.2 2.18L12.9 1.42C13.5 0.96 14.28 0.639999 15.34 0.639999C16.94 0.639999 18.88 1.56 18.88 3.8C18.88 5.58 17.36 6.88 15.18 6.88C14.94 6.88 14.7 6.86 14.44 6.82C15.62 7.56 16.46 7.58 17.08 8.42C17.56 9.06 17.66 9.78 17.66 10.42C17.66 10.72 17.64 11 17.64 11.26C17.64 11.5 17.64 11.68 17.7 11.82C17.96 12.42 19.06 12.06 19.06 12.68C19.06 13.28 17.52 13.34 16.82 13.34ZM17.02 12.72H17.18C16.82 12.68 16.36 12.56 15.96 12.28C14.88 11.52 15.06 9.68 14.58 8.68C14.3 8.08 13.9 7.7 13.42 7.3C13.38 7.78 13.36 8.28 13.36 9C13.36 11.14 14.1 12.72 17.02 12.72Z" fill="#CCBBA3"/>
</svg>
